<?xml version="1.0" standalone="no"?><!DOCTYPE svg PUBLIC "-//W3C//DTD SVG 1.1//EN" "http://www.w3.org/Graphics/SVG/1.1/DTD/svg11.dtd"><svg t="1624928896320" class="icon" viewBox="0 0 1024 1024" version="1.1" xmlns="http://www.w3.org/2000/svg" p-id="5505" xmlns:xlink="http://www.w3.org/1999/xlink" width="200" height="200"><defs><style type="text/css"></style></defs><path d="M512 64a448 448 0 1 1 0 896A448 448 0 0 1 512 64z m0 537.6c-50.112 0-100.288 4.416-150.592 13.184l-30.208 5.76-39.104 174.464A356.864 356.864 0 0 0 512 870.4c82.88 0 159.168-28.16 219.904-75.392l-39.104-174.4A878.208 878.208 0 0 0 512 601.6z m-294.144 115.2l19.712-88.256-73.152-28.8c10.752 42.56 29.056 82.048 53.44 117.056zM859.52 599.808l-73.216 28.736 19.84 88.256c24.32-35.008 42.624-74.496 53.376-116.992zM512 153.6a358.4 358.4 0 0 0-358.144 345.6l112.896 44.544 21.248-5.312A972.608 972.608 0 0 1 512 512c81.728 0 163.392 10.56 245.12 31.616l112.96-44.416v-1.28A358.4 358.4 0 0 0 512 153.6z m156.672 179.2a56.96 56.96 0 1 1 3.712 113.792 56.96 56.96 0 0 1-3.712-113.792z m-317.248 0a56.96 56.96 0 1 1 3.712 113.792A56.96 56.96 0 0 1 351.36 332.8z" fill="#1296db" p-id="5506"></path></svg>