<?xml version="1.0" standalone="no"?><!DOCTYPE svg PUBLIC "-//W3C//DTD SVG 1.1//EN" "http://www.w3.org/Graphics/SVG/1.1/DTD/svg11.dtd"><svg t="1624929013771" class="icon" viewBox="0 0 1024 1024" version="1.1" xmlns="http://www.w3.org/2000/svg" p-id="6201" xmlns:xlink="http://www.w3.org/1999/xlink" width="200" height="200"><defs><style type="text/css"></style></defs><path d="M268.672 226.752c-34.752 0-62.912-29.248-62.912-65.408 0-36.096 28.16-65.344 62.912-65.344 34.688 0 62.848 29.248 62.848 65.344 0 36.16-28.16 65.408-62.848 65.408z m355.84 245.44H536.576V96H928v833.28H536.512v-231.424H624.64v139.968h215.424V187.52H624.576v284.672z m-440.064 162.56H96.384V428.16c0-91.392 76.992-163.392 169.792-163.392S435.84 336.768 435.84 428.16v115.072H624.64v91.52H347.904V428.16c0-38.592-35.648-71.872-81.728-71.872-46.08 0-81.728 33.28-81.728 71.872v206.592z m81.728-239.296c24.32 0 43.968 20.48 43.968 45.76v488.128H222.144V441.216c0-25.216 19.712-45.76 44.032-45.76z" fill="#1296db" p-id="6202"></path></svg>