<?xml version="1.0" standalone="no"?><!DOCTYPE svg PUBLIC "-//W3C//DTD SVG 1.1//EN" "http://www.w3.org/Graphics/SVG/1.1/DTD/svg11.dtd"><svg t="1624928878547" class="icon" viewBox="0 0 1024 1024" version="1.1" xmlns="http://www.w3.org/2000/svg" p-id="5127" xmlns:xlink="http://www.w3.org/1999/xlink" width="200" height="200"><defs><style type="text/css"></style></defs><path d="M960 870.4V960H64v-89.6h896zM512 64a128 128 0 0 1 100.032 207.872l63.872 255.808H896l64 256H64l64-256h220.096l63.936-255.744A128 128 0 0 1 512 64z m0 256c-6.464 0-12.864-0.512-19.136-1.408L418.752 617.28h-220.8l-19.2 76.8h666.496l-19.2-76.8H604.48L531.008 318.592A129.024 129.024 0 0 1 512 320z m0-166.4a38.4 38.4 0 1 0 0 76.8 38.4 38.4 0 0 0 0-76.8z" fill="#1296db" p-id="5128"></path></svg>